<svg width="20" height="19" viewBox="0 0 20 19" fill="none" xmlns="http://www.w3.org/2000/svg">
<path d="M9.99023 18.7422C14.9736 18.7422 19.0869 14.6289 19.0869 9.6543C19.0869 4.67969 14.9648 0.566406 9.98145 0.566406C5.00684 0.566406 0.902344 4.67969 0.902344 9.6543C0.902344 14.6289 5.01562 18.7422 9.99023 18.7422ZM6.99316 13.4863C6.52734 13.4863 6.1582 13.1172 6.1582 12.6426C6.1582 12.4316 6.24609 12.2207 6.41309 12.0625L8.80371 9.66309L6.41309 7.27246C6.24609 7.11426 6.1582 6.90332 6.1582 6.69238C6.1582 6.21777 6.52734 5.85742 6.99316 5.85742C7.23926 5.85742 7.43262 5.93652 7.59082 6.09473L9.99023 8.48535L12.3984 6.08594C12.5742 5.91895 12.7588 5.83984 12.9961 5.83984C13.4619 5.83984 13.8311 6.20898 13.8311 6.6748C13.8311 6.89453 13.7432 7.08789 13.5762 7.26367L11.1855 9.66309L13.5762 12.0537C13.7344 12.2207 13.8223 12.4229 13.8223 12.6426C13.8223 13.1172 13.4531 13.4863 12.9785 13.4863C12.7412 13.4863 12.5391 13.3984 12.3721 13.2402L9.99023 10.8584L7.6084 13.2402C7.4502 13.4072 7.23926 13.4863 6.99316 13.4863Z" fill="#6B6B6B"/>
</svg>
